<?xml version="1.0" standalone="no"?>
<!DOCTYPE svg PUBLIC "-//W3C//DTD SVG 20010904//EN"
 "http://www.w3.org/TR/2001/REC-SVG-20010904/DTD/svg10.dtd">
<svg version="1.0" xmlns="http://www.w3.org/2000/svg"
 width="260.000000pt" height="260.000000pt" viewBox="0 0 260.000000 260.000000"
 preserveAspectRatio="xMidYMid meet">
<metadata>
Created by potrace 1.14, written by Peter Selinger 2001-2017
</metadata>
<g transform="translate(0.000000,260.000000) scale(0.100000,-0.100000)"
fill="#000000" stroke="none">
<path d="M0 2558 l1 -43 15 27 c8 15 27 34 42 42 l27 15 -42 1 -43 0 0 -42z"/>
<path d="M2542 2584 c15 -8 34 -27 42 -42 l15 -27 1 43 0 42 -42 0 -43 -1 27
-15z"/>
<path d="M1085 1916 c-22 -14 -43 -33 -47 -43 -3 -10 -7 -104 -7 -210 -1 -123
-5 -201 -13 -218 -11 -25 -12 -25 -104 -19 -89 7 -96 6 -131 -18 -21 -14 -50
-32 -64 -41 -15 -9 -42 -42 -60 -74 -31 -54 -34 -65 -34 -144 0 -82 1 -87 33
-123 17 -20 32 -41 32 -46 0 -5 34 -25 76 -45 98 -45 185 -49 231 -11 15 12
40 29 55 37 14 8 44 39 65 69 l38 55 5 342 c6 400 2 386 91 357 30 -9 79 -26
109 -36 30 -11 82 -28 115 -38 33 -10 80 -27 105 -38 25 -12 70 -28 101 -36
93 -26 94 -27 97 -255 3 -179 1 -199 -15 -220 -17 -21 -21 -22 -66 -10 -68 17
-123 7 -191 -35 -48 -29 -66 -48 -94 -98 -33 -57 -35 -68 -35 -141 1 -65 5
-85 22 -106 12 -14 27 -37 33 -49 7 -15 44 -39 96 -64 76 -37 90 -40 139 -35
30 3 64 13 76 21 12 9 38 27 58 40 32 22 53 47 96 120 10 16 13 121 13 416 0
462 3 445 -95 497 -33 17 -130 55 -215 83 -85 28 -172 62 -193 76 -40 26 -127
49 -222 59 -53 5 -65 2 -100 -19z m-110 -657 c39 -36 45 -47 45 -81 0 -46 -12
-72 -53 -115 -50 -53 -123 -41 -181 27 -45 54 -31 129 34 184 50 41 99 36 155
-15z m760 -280 c36 -35 40 -44 38 -84 -1 -35 -9 -54 -38 -90 -35 -42 -40 -45
-86 -45 -42 0 -55 5 -89 36 -63 57 -64 119 -4 187 49 57 118 55 179 -4z"/>
<path d="M0 43 l0 -43 43 0 42 1 -27 15 c-15 8 -34 27 -42 42 l-15 27 -1 -42z"/>
<path d="M2585 59 c-4 -11 -21 -29 -38 -40 l-32 -19 43 0 42 0 0 40 c0 44 -5
51 -15 19z"/>
</g>
</svg>
