<?xml version="1.0" standalone="no"?>
<!DOCTYPE svg PUBLIC "-//W3C//DTD SVG 20010904//EN"
 "http://www.w3.org/TR/2001/REC-SVG-20010904/DTD/svg10.dtd">
<svg version="1.0" xmlns="http://www.w3.org/2000/svg"
 width="260.000000pt" height="260.000000pt" viewBox="0 0 260.000000 260.000000"
 preserveAspectRatio="xMidYMid meet">
<metadata>
Created by potrace 1.14, written by Peter Selinger 2001-2017
</metadata>
<g transform="translate(0.000000,260.000000) scale(0.100000,-0.100000)"
fill="#000000" stroke="none">
<path d="M0 2553 l1 -48 14 33 c9 20 27 38 47 47 l33 14 -47 1 -48 0 0 -47z"/>
<path d="M2538 2585 c20 -9 38 -27 47 -47 l14 -33 1 48 0 47 -47 0 -48 -1 33
-14z"/>
<path d="M1080 1925 c-24 -18 -47 -41 -51 -52 -4 -10 -8 -105 -8 -211 -1 -111
-5 -201 -11 -212 -9 -18 -19 -19 -103 -14 l-92 6 -55 -35 c-67 -43 -73 -49
-113 -111 -29 -46 -31 -56 -32 -142 0 -86 2 -95 26 -121 15 -15 32 -38 38 -50
6 -12 44 -38 85 -58 69 -35 78 -37 149 -33 65 3 80 7 104 29 15 15 37 31 48
37 11 6 38 36 60 68 l40 58 5 343 c4 277 8 345 19 352 8 5 41 0 85 -14 217
-71 255 -84 283 -98 17 -9 60 -24 97 -33 49 -12 73 -24 91 -46 25 -29 25 -32
25 -218 0 -213 -4 -225 -63 -212 -18 4 -57 7 -87 7 -79 0 -164 -54 -214 -135
-35 -56 -36 -62 -36 -152 0 -84 2 -97 21 -114 12 -10 27 -31 35 -46 9 -18 40
-41 87 -65 64 -33 80 -37 144 -37 66 1 75 4 107 32 19 16 44 33 55 37 18 6 44
39 83 109 16 28 18 68 18 423 0 470 4 450 -103 510 -40 23 -90 45 -112 49 -22
3 -58 16 -80 27 -22 11 -71 28 -108 38 -38 9 -85 29 -105 43 -32 21 -237 78
-276 75 -6 0 -31 -15 -56 -34z m-111 -674 c55 -53 57 -98 6 -165 -32 -41 -40
-46 -77 -46 -35 0 -47 6 -84 44 -56 55 -59 94 -13 152 39 49 46 54 91 54 29 0
45 -8 77 -39z m746 -272 c53 -49 62 -74 41 -120 -47 -104 -117 -121 -192 -45
-54 54 -57 85 -12 145 54 74 99 79 163 20z"/>
<path d="M0 48 l0 -48 48 0 47 1 -33 14 c-20 9 -38 27 -47 47 l-14 33 -1 -47z"/>
<path d="M2583 60 c-7 -19 -24 -36 -45 -45 l-33 -14 48 -1 47 0 0 45 c0 25 -1
45 -3 45 -1 0 -8 -14 -14 -30z"/>
</g>
</svg>
